<?xml version="1.0" encoding="UTF-8"?>
<!DOCTYPE svg PUBLIC "-//W3C//DTD SVG 1.1//EN" "http://www.w3.org/Graphics/SVG/1.1/DTD/svg11.dtd">
<!-- Creator: CorelDRAW 2021 (64-Bit) -->
<svg xmlns="http://www.w3.org/2000/svg" xml:space="preserve" width="25.1154mm" height="25.0834mm" version="1.1" style="shape-rendering:geometricPrecision; text-rendering:geometricPrecision; image-rendering:optimizeQuality; fill-rule:evenodd; clip-rule:evenodd"
viewBox="0 0 89.35 89.24"
 xmlns:xlink="http://www.w3.org/1999/xlink"
 xmlns:xodm="http://www.corel.com/coreldraw/odm/2003">
 <defs>
  <style type="text/css">
   <![CDATA[
    .fil0 {fill:url(#id0)}
    .fil2 {fill:url(#id1)}
    .fil1 {fill:url(#id2)}
   ]]>
  </style>
  <linearGradient id="id0" gradientUnits="objectBoundingBox" x1="50%" y1="100%" x2="50%" y2="0%">
   <stop offset="0" style="stop-opacity:1; stop-color:#B11F24"/>
   <stop offset="1" style="stop-opacity:1; stop-color:#F49C00"/>
  </linearGradient>
  <linearGradient id="id1" gradientUnits="objectBoundingBox" xlink:href="#id0" x1="50%" y1="100%" x2="50%" y2="0%">
  </linearGradient>
  <linearGradient id="id2" gradientUnits="objectBoundingBox" xlink:href="#id0" x1="50%" y1="100%" x2="50%" y2="0%">
  </linearGradient>
 </defs>
 <g id="Capa_x0020_1">
  <metadata id="CorelCorpID_0Corel-Layer"/>
  <g id="_2929398627488">
   <path class="fil0" d="M63.64 56.96c-1.19,4.3 -5.74,8.15 -11.38,6.69 -11.78,-3.04 -7.43,-21.06 4.58,-18.12 4.3,1.05 8.36,5.78 6.8,11.43zm-1.35 8.51c1.41,1.56 10.1,10.51 11.44,11.09 1.36,-0.3 2.65,-1.52 2.8,-3.03l-8.22 -8.45c-0.61,-0.67 -0.65,-0.71 -1.36,-1.34l-1.46 -1.66c3.26,-6.53 3.54,-12.39 -2.63,-17.75 -3.49,-3.02 -9.19,-3.88 -13.94,-1.64 -7.48,3.52 -10.27,13.69 -4.32,20.5 1.56,1.79 4.32,3.91 7.91,4.44 5.04,0.75 6.76,-0.96 9.78,-2.16z"/>
   <path class="fil0" d="M15.88 38.27l6.35 -0.04 -0.03 6.41 -2.88 -0.05c-0.63,-0.65 -0.38,-1.8 -0.33,-3.15l-3.05 -0c0.02,0.52 0.1,1.5 0.07,1.99l-0.41 1.22 -3.13 0.02 0.22 3.11 9.54 0.05 -0.01 3.17 -6.32 0.02 -0.12 3.1 9.44 -0.03c-0.02,-1.23 -0.41,-5.23 0.29,-6.25l3 -0.07 -0.12 -3.11 -2.64 -0.1c-0.72,-0.4 -0.46,-1.4 -0.35,-3.08l6.39 -0.17 0.19 6.43 2.97 0.03c-0.06,-1.26 -0.31,-2.48 0.32,-3.15l2.91 0.01 0.05 -3.08 -3.3 -0.09 -0.11 -3.25 -2.99 0.02 -0.01 -2.64c-1.24,-0.58 -1.7,-0.34 -3.12,-0.43 0.07,0.88 0.41,2.68 -0.27,3.07l-2.93 0.01c-0.08,-0.74 0.26,-2.99 -0.47,-3.2l-9.04 -0 -0.11 3.25z"/>
   <path class="fil0" d="M15.9 60.59l12.71 -0 -0.01 12.76 -12.78 0 0.07 -12.76zm-3.26 15.9l19.17 0.06 -0.01 -19.15 -19.06 -0.03 -0.1 19.11z"/>
   <path class="fil0" d="M15.83 15.87l12.79 0 -0.05 12.76 -12.72 -0.01 -0.01 -12.75zm-3.25 15.96l19.14 0.01 0.09 -19.12 -19.35 0.02c0.38,1.55 0.43,17.72 0.12,19.09z"/>
   <path class="fil0" d="M0.25 63.94c-0.37,2.48 -0.25,9.89 -0.09,12.61 0.25,4.21 1.92,6.65 3.98,8.74 5.31,5.42 12.61,3.6 21.17,3.84l-0.09 -4.08c-3.51,-0.01 -7.02,-0 -10.53,0 -14.06,0.02 -9.7,-14.14 -10.55,-21.1l-3.89 -0.02z"/>
   <path class="fil0" d="M64.1 89.13c8.83,-0.26 15.78,1.6 21.27,-3.98 2.07,-2.11 3.67,-4.79 3.84,-8.91 0.12,-2.94 0.29,-9.6 -0.09,-12.28l-3.9 -0.02c-0.81,6.66 1.73,13.98 -2.75,18.31 -2.23,2.16 -3.76,2.81 -7.83,2.8 -3.5,-0 -7.01,0 -10.6,-0.01l0.06 4.09z"/>
   <path class="fil0" d="M0.23 25.27l3.91 -0.02c0.82,-7.01 -3.46,-21.11 10.55,-21.09 3.51,0 7.03,-0.01 10.54,0.01l0.08 -4.09c-4.17,0.11 -8.36,-0.12 -12.43,0.04 -6.81,0.26 -12.31,5.65 -12.72,12.54 -0.17,2.92 -0.28,9.87 0.07,12.61z"/>
   <path class="fil0" d="M80.88 5.91c1.07,0.22 2.41,1.74 2.96,2.69 2.5,4.38 0.61,10.24 1.38,16.67l3.91 0.18c0.34,-3.17 0.26,-9.52 0.07,-12.79 -0.25,-4.16 -1.93,-6.68 -4,-8.74 -5.47,-5.46 -12.46,-3.53 -21.16,-3.83l0.09 4.08c3.81,-0.01 14.87,-1.04 16.76,1.74z"/>
   <path class="fil0" d="M73.43 15.81l-0.11 0.48 -0.01 12.33 -12.52 0.05c-0.19,-0.27 -0.15,-0.09 -0.33,-0.63 -0.03,-0.08 -0.03,-0.54 -0.04,-0.61l-0.85 -0.3c0.05,-0.09 0.08,-0.21 0.1,-0.29l0.23 -1.5c0.12,-4.05 -0.12,-4.71 0.2,-9.66l-0.24 -1.49c-1.11,0.51 -0.37,-0.15 -0.82,0.88 -0.36,0.83 0.26,14.21 -0.08,15.79 -0.55,-0.13 -0.68,0.03 -0.66,-0.68 0.04,-1.22 -0.02,-0.32 0.46,-0.89 0.04,-0.04 0.16,-0.05 0.19,-0.17 0.03,-0.12 0.14,-0.1 0.21,-0.17l0.02 -12.36c0.01,-1.6 -0.03,-2.12 -1.12,-3.22 -0.01,2.76 0.49,16.33 -0.3,17.69l13.86 0c3.19,-0.01 3.23,-0.45 4.22,0.6l-0.01 -18.67c-2.32,0.99 -1.4,0.73 -2.11,2.01 0.01,-0.02 0.7,-0.01 -0.09,-0.38 -0.65,-0.31 -1.29,0.42 -1.38,0.48 0.68,0 0.79,0.5 0.87,0.39 0.08,-0.11 0.19,0.23 0.3,0.33z"/>
   <path class="fil0" d="M60.43 27.44c-0,-2.42 -0.33,-9.79 0.21,-11.64l12.79 0.01c-0.11,-0.1 -0.22,-0.44 -0.3,-0.33 -0.09,0.11 -0.19,-0.39 -0.87,-0.39 0.09,-0.06 0.73,-0.79 1.38,-0.48 0.79,0.37 0.1,0.37 0.09,0.38 0.71,-1.27 -0.21,-1.01 2.11,-2.01l0.01 18.67c-0.99,-1.05 -1.04,-0.61 -4.22,-0.6l-13.86 0c0.79,-1.36 0.29,-14.92 0.3,-17.69 1.09,1.09 1.13,1.61 1.12,3.22l-0.02 12.36c-0.06,0.06 -0.18,0.05 -0.21,0.17 -0.03,0.11 -0.16,0.13 -0.19,0.17 -0.48,0.57 -0.42,-0.33 -0.46,0.89 -0.02,0.71 0.11,0.56 0.66,0.68 0.34,-1.58 -0.28,-14.95 0.08,-15.79 0.45,-1.03 -0.29,-0.37 0.82,-0.88l0.24 1.49c-0.33,4.96 -0.09,5.62 -0.2,9.66l-0.23 1.5c-0.02,0.09 -0.06,0.2 -0.1,0.29l0.85 0.3zm15.96 -14.76l-18.8 0.04 -0.08 19.09 18.97 -0.03 -0.09 -19.1z"/>
   <polygon class="fil0" points="47.77,31.69 50.93,31.78 50.89,25.46 54.18,25.27 54.2,22.26 47.84,22.29 47.78,25.4 44.69,25.48 44.59,28.56 47.76,28.69 "/>
   <path class="fil0" d="M38.19 15.7l3.12 0.17 0.13 6.29 6.32 -0.11 -0.08 -2.82c-0.47,0.01 -1.15,0.05 -1.7,0.04 -1.28,-0.03 -0.89,0.15 -1.36,-0.41l0.01 -6.2 -6.4 0.01 -0.04 3.03z"/>
   <polygon class="fil0" points="63.76,25.44 70.2,25.48 70.16,19.05 63.83,19.06 "/>
   <path class="fil0" d="M19.32 70.19l5.79 -0c0.55,-1.93 0.21,-4.28 0.25,-6.26l-6.26 -0.03 0.23 6.28z"/>
   <path class="fil0" d="M50.83 35.04l-2.99 -0.04 0.03 3.05 9.36 0.02 -0.02 -2.98c-0.61,0.1 -0.88,0.15 -1.58,0.15 -1.11,0 -0.88,0.15 -1.41,-0.36l-0.03 -2.89 -3.1 -0.04 -0.15 2.88c-0.01,-0.04 -0.07,0.14 -0.11,0.21z"/>
   <path class="fil0" d="M25.27 24.24l-0.01 -0.01c-0.43,-0.78 -0.32,-0.76 -0.33,-2.2 -0.01,-0.89 -0.01,-1.7 0.02,-2.6l-5.55 0.01 0.04 5.65c1.63,-0.16 3.5,-0.14 5.2,0.05 0.41,-1.49 0.13,-0.29 0.63,-0.91z"/>
   <path class="fil0" d="M38.19 25.3c-0.6,0.33 -0.12,0.25 -1.18,0.29 -0.61,0.03 -1.35,-0.05 -1.96,-0.09l0.18 3.16 6.18 -0.02 0.02 -6.26 -3.3 -0.07 0.07 2.99z"/>
   <polygon class="fil0" points="54.31,12.53 50.99,12.74 50.98,18.89 54.2,19.11 "/>
   <polygon class="fil0" points="38.12,22.31 38.08,15.92 34.88,15.95 35.03,22.15 "/>
   <polygon class="fil1" points="67.05,38.41 70.11,38.2 70.16,35.02 67.06,34.84 "/>
   <polygon class="fil0" points="63.72,38.38 63.76,35.06 62.29,35.04 60.61,35.07 60.58,38.13 "/>
   <polygon class="fil0" points="44.61,35.13 47.85,35 47.81,32.03 44.6,31.95 "/>
   <polygon class="fil0" points="38.23,57.28 38.22,54.18 35.17,54.17 35.04,57.36 "/>
   <polygon class="fil0" points="38.14,34.99 41.36,35.11 41.4,31.95 38.23,32.09 "/>
   <path class="fil0" d="M35.21 38.25l2.94 -0.03 0 -2.88 -0.01 -0.35 -2.77 0.03c-0.37,1.16 -0.3,2 -0.16,3.23z"/>
   <polygon class="fil0" points="38.24,63.64 38.2,60.59 35.27,60.58 35.07,63.7 "/>
   <polygon class="fil0" points="31.94,54.2 34.78,54.22 34.78,50.99 31.86,50.96 "/>
   <polygon class="fil2" points="28.63,50.84 31.86,50.96 31.84,48.01 28.6,48.05 "/>
   <polygon class="fil0" points="35.41,70.17 38.16,70.17 38.25,67.08 35.11,66.95 "/>
   <polygon class="fil1" points="12.64,41.17 15.85,41.19 15.88,38.27 12.64,38.37 "/>
   <polygon class="fil0" points="41.6,38.25 44.43,38.26 44.44,35.14 41.57,35.14 "/>
   <polygon class="fil1" points="38.21,50.9 38.21,48.03 35.38,48.16 35.44,50.89 "/>
   <path class="fil0" d="M60.43 27.44c0,0.07 0.01,0.54 0.04,0.61 0.18,0.54 0.14,0.36 0.33,0.63l-0.1 -12.63c2.67,0.07 10.72,-0.34 12.63,0.24l0.11 -0.48 -12.79 -0.01c-0.54,1.85 -0.21,9.22 -0.21,11.64z"/>
   <path class="fil0" d="M25.27 24.24c-0.51,0.62 -0.22,-0.58 -0.63,0.91 -1.69,-0.19 -3.56,-0.21 -5.2,-0.05l-0.04 -5.65 5.55 -0.01c-0.03,0.89 -0.03,1.7 -0.02,2.6 0.01,1.44 -0.1,1.42 0.33,2.2l0.03 -5.05 -6.08 -0.04 -0.06 6.08 6.14 0.06 -0.02 -1.03z"/>
   <path class="fil0" d="M47.77 31.69l-3.13 0.09c-0.39,1.12 -0.25,2.15 -0.2,3.36l0.18 -0.01 -0.01 -3.18 3.21 0.08 3.03 0.02 -0.01 3c0.04,-0.07 0.1,-0.25 0.11,-0.21l0.15 -2.88 3.1 0.04c-0.83,-0.46 -1.84,-0.26 -3.05,-0.29l-0.02 -6.13c1.03,-0.01 2.19,0.22 3.07,-0.3l-3.29 0.18 0.05 6.32 -3.16 -0.09z"/>
   <path class="fil0" d="M25.26 24.23l0.01 0.01 0.02 1.03 -6.14 -0.06 0.06 -6.08 6.08 0.04 -0.03 5.05zm-6.17 1.3l6.42 -0.06 -0.03 -6.54 -6.58 0.13 0.19 6.48z"/>
   <path class="fil0" d="M15.79 54.1c1.51,0.48 7.74,0.38 9.65,0.05l0.08 -6.33c-0.7,1.02 -0.31,5.01 -0.29,6.25l-9.44 0.03z"/>
   <path class="fil0" d="M19.32 70.19l-0.23 -6.28 6.26 0.03c-0.04,1.98 0.3,4.33 -0.25,6.26 0.53,-0.43 0.4,0.71 0.48,-0.88 0,-1.76 0.31,-3.92 -0.21,-5.56l-6.28 -0.06 -0.18 5.9c0.24,0.8 -0.14,0.13 0.41,0.61z"/>
   <path class="fil0" d="M47.87 38.05l0.03 0.16 9.51 0.08 0.02 -3.24 -2.68 -0.12 -0.54 -0.05c0.53,0.51 0.31,0.36 1.41,0.36 0.7,-0 0.97,-0.05 1.58,-0.15l0.02 2.98 -9.36 -0.02z"/>
   <path class="fil0" d="M41.44 22.16l-0.01 0.21 6.41 -0.09 -0.01 -3.25 -3.21 -0.17c0.48,0.56 0.08,0.38 1.36,0.41 0.55,0.01 1.23,-0.03 1.7,-0.04l0.08 2.82 -6.32 0.11z"/>
   <path class="fil0" d="M34.86 36.18l-0.04 2.02 0.11 3.25 3.3 0.09c-0.07,-0.04 -0.16,-0.17 -0.2,-0.11l-1.03 -0.19c-0.55,-0.03 -1.31,0.02 -1.9,0.01l0.1 -3c-0.14,-1.23 -0.21,-2.07 0.16,-3.23 -0.49,0.37 -0.44,-0.51 -0.51,1.16z"/>
   <path class="fil0" d="M28.44 38.21c0.68,-0.39 0.34,-2.2 0.27,-3.07 1.41,0.1 1.88,-0.14 3.12,0.43 -0.01,-0.84 -0.01,-0.59 -1.02,-0.6l-1.66 -0.01 -0.58 0.31 -0.14 2.94z"/>
   <path class="fil2" d="M35.23 28.65l-0.18 -3.16c0.61,0.04 1.36,0.12 1.96,0.09 1.06,-0.05 0.58,0.03 1.18,-0.29l-3.19 0.08c-0.16,0.99 -0.41,2.52 0.23,3.28z"/>
   <path class="fil0" d="M35.41 70.17l-0.3 -3.21 3.15 0.12c-0.12,-0.05 0.05,-0.12 -0.68,-0.22l-2.61 0.15c-0.13,4.49 -0.19,2.62 0.44,3.16z"/>
   <polygon class="fil0" points="38.14,50.82 38.21,50.9 35.44,50.89 35.38,48.16 38.21,48.03 38.21,47.94 35.08,47.94 35.11,50.84 "/>
   <path class="fil0" d="M41.36 35.11l0.21 0.03 -0.21 -3.34c-0.89,-0.1 -2.71,-0.38 -3.12,0.29l3.17 -0.14 -0.04 3.16z"/>
  </g>
 </g>
</svg>
