<?xml version="1.0" encoding="UTF-8"?>
<!DOCTYPE svg PUBLIC "-//W3C//DTD SVG 1.1//EN" "http://www.w3.org/Graphics/SVG/1.1/DTD/svg11.dtd">
<!-- Creator: CorelDRAW 2021 (64-Bit) -->
<svg xmlns="http://www.w3.org/2000/svg" xml:space="preserve" width="17.9692mm" height="17.9692mm" version="1.1" style="shape-rendering:geometricPrecision; text-rendering:geometricPrecision; image-rendering:optimizeQuality; fill-rule:evenodd; clip-rule:evenodd"
viewBox="0 0 68.67 68.67"
 xmlns:xlink="http://www.w3.org/1999/xlink"
 xmlns:xodm="http://www.corel.com/coreldraw/odm/2003">
 <defs>
  <style type="text/css">
   <![CDATA[
    .fil0 {fill:url(#id0)}
   ]]>
  </style>
  <linearGradient id="id0" gradientUnits="userSpaceOnUse" x1="34.33" y1="68.67" x2="34.33" y2="0">
   <stop offset="0" style="stop-opacity:1; stop-color:#B11F24"/>
   <stop offset="1" style="stop-opacity:1; stop-color:#F49C00"/>
  </linearGradient>
 </defs>
 <g id="Capa_x0020_1">
  <metadata id="CorelCorpID_0Corel-Layer"/>
  <path class="fil0" d="M43.86 30.04c0,0.46 1.21,0.33 1.21,1.88 0,1.09 -0.36,2.63 -1.09,2.94 -1.78,0.76 -0.61,-1.13 -1.52,2.5 -0.41,1.63 -1.12,3.51 -2.4,4.57 -0.31,0.25 -0.49,0.19 -0.49,0.58 0,1.3 -0.12,5.99 0.3,6.94 1.78,3.95 6.47,4.97 10.24,6.65 0.93,0.42 3.93,1.63 4.47,2.37 -0.68,0.45 -1.26,0.92 -1.99,1.37 -0.72,0.45 -1.32,0.88 -2.08,1.27 -1.91,0.97 -1.99,1.2 -4.43,2.28 -9.21,4.1 -19.62,2.97 -28.11,-2.11 -0.9,-0.54 -3.38,-2.18 -3.9,-2.94 2.44,-1.29 1.92,-1.2 4.87,-2.38 0.91,-0.36 1.67,-0.65 2.59,-1.03 0.9,-0.38 1.8,-0.74 2.61,-1.15 2.48,-1.25 5,-2.92 4.96,-6.03 -0.02,-1.84 0.3,-3.02 0.02,-4.98 -0.21,-1.44 -0.51,0 -1.9,-2.8 -0.6,-1.21 -1.34,-3.05 -1.34,-4.83 -0.86,-0.2 -1.42,-0.12 -1.79,-0.89 -0.35,-0.72 -0.49,-1.67 -0.49,-2.59 0,-0.79 0.72,-1.15 1.21,-1.48 -0.04,-0.53 -0.27,-1.18 -0.37,-1.64 -1.01,-4.8 -1.96,-10.86 2.01,-14.55 0.66,-0.61 1.13,-0.86 1.98,-1.24 0.67,-0.3 1.49,-0.64 2.3,-0.79 0.49,-0.09 0.88,-0.16 1.38,-0.23 0.52,-0.08 0.98,-0.03 1.5,-0.11 1.81,-0.27 4.22,0.3 5.18,1.1 0.96,0.8 0.17,1.03 1.77,1.31 5.17,0.92 5.24,6.54 4.54,10.82 -0.16,0.96 -0.35,1.85 -0.55,2.67 -0.14,0.58 -0.7,2.1 -0.7,2.52zm-6.1 38.63l-6.78 0c-3.55,0 -9.07,-2.12 -12.34,-3.76 -3.16,-1.58 -4.73,-2.88 -7.15,-4.92l-2.07 -1.95c-0.41,-0.41 -0.55,-0.67 -0.94,-1.07 -1.92,-2.01 -4.52,-6.13 -5.51,-8.57 -2.31,-5.66 -2.97,-8.62 -2.97,-15 0,-8.87 4.25,-17.59 10.03,-23.37 2.72,-2.72 6.15,-5.17 9.87,-6.9 4.93,-2.29 9.17,-3.13 15.38,-3.13 8.87,0 17.59,4.25 23.37,10.03 5.79,5.79 10.03,14.51 10.03,23.37 0,6.31 -0.65,9.32 -2.93,14.91 -0.93,2.28 -2.93,5.51 -4.56,7.51l-0.93 1.09c-0.37,0.39 -0.5,0.64 -0.87,1.01 -2.56,2.59 -5.77,5.23 -9.09,6.87 -1.87,0.93 -3.51,1.66 -5.68,2.36 -1.07,0.35 -2.04,0.59 -3.12,0.9 -1.24,0.36 -2.47,0.54 -3.73,0.62zm-16.97 -37.29c0,2.12 0.21,3.33 1.28,4.89 0.86,1.26 0.99,0.43 1.33,1.49 0.61,1.9 0.87,3.04 2.05,4.79 0.23,0.34 0.49,0.57 0.65,0.82 0.4,0.64 0.29,4.54 0.1,5.1 -0.7,2.04 -4.74,3.44 -6.85,4.28 -3.35,1.34 -4.53,1.78 -7.42,3.72 -0.7,-0.47 -0.95,-0.93 -1.38,-1.44 -5.22,-6.18 -7.74,-12.58 -7.74,-21.37 0,-4.63 1.37,-9.35 2.86,-12.56 3.12,-6.73 8.69,-12.3 15.42,-15.42 15.62,-7.24 34.52,-0.46 41.89,15.42 3.92,8.46 3.72,17.79 0.08,26.28 -1.47,3.44 -3.14,5.38 -5.25,8.03 -0.33,0.41 -0.67,0.63 -0.96,1.05 -1.14,-0.6 -2.29,-1.52 -3.85,-2.18 -2.16,-0.93 -6.82,-2.66 -8.48,-3.72 -2.64,-1.68 -2.15,-2.97 -2.15,-6.7 0,-0.17 1.2,-1.7 1.66,-2.63 0.5,-1.02 0.83,-2.03 1.14,-3.15 0.47,-1.7 0.58,-0.22 1.84,-2.45 0.7,-1.25 0.86,-2.66 0.86,-4.24 0,-1.08 -0.81,-1.88 -0.81,-2.28l1.2 -7.52 -0.14 -1.99c-0.19,-2.68 -1.53,-5.69 -3.85,-7.15 -1.49,-0.93 -2.6,-0.95 -3.08,-1.34 -0.57,-0.47 -0.15,-0.29 -1.18,-0.96 -0.5,-0.33 -0.97,-0.54 -1.53,-0.75 -2.96,-1.09 -7.11,-0.7 -10.05,0.29 -0.64,0.21 -1.03,0.44 -1.7,0.71 -1.89,0.77 -3.82,3.03 -4.75,4.91 -1.23,2.49 -0.99,3.99 -1.23,6.02 -0.2,1.73 0.29,4.74 0.59,6.42 0.05,0.29 0.17,0.65 0.25,0.98 0.25,1.07 -0.82,0.99 -0.82,2.68z"/>
 </g>
</svg>
